<?xml version="1.0" encoding="UTF-8"?>
<svg xmlns="http://www.w3.org/2000/svg" viewBox="0 0 1280 720" width="1280" height="720">
  <defs>
    <linearGradient id="g_62149436" x1="0" y1="0" x2="1" y2="1">
      <stop offset="0%" stop-color="#2a1a2e"/>
      <stop offset="100%" stop-color="#1a1224"/>
    </linearGradient>
    <radialGradient id="o_24935440" cx="50%" cy="50%" r="50%">
      <stop offset="0%" stop-color="#d97757" stop-opacity="0.6"/>
      <stop offset="100%" stop-color="#d97757" stop-opacity="0"/>
    </radialGradient>
    <marker id="a_60827600" markerWidth="10" markerHeight="10" refX="8" refY="3" orient="auto" markerUnits="strokeWidth">
      <path d="M0,0 L0,6 L9,3 z" fill="#d97757"/>
    </marker>
    <filter id="softShadow" x="-20%" y="-20%" width="140%" height="140%">
      <feGaussianBlur in="SourceAlpha" stdDeviation="6"/>
      <feOffset dx="0" dy="2" result="offsetblur"/>
      <feComponentTransfer><feFuncA type="linear" slope="0.4"/></feComponentTransfer>
      <feMerge><feMergeNode/><feMergeNode in="SourceGraphic"/></feMerge>
    </filter>
  </defs>

  <!-- Background gradient -->
  <rect width="1280" height="720" fill="url(#g_62149436)"/>

  <!-- Decorative pattern -->
  <line x1="72" y1="473" x2="102" y2="473" stroke="#c084fc" stroke-width="1" opacity="0.18"/>
<line x1="72" y1="473" x2="72" y2="503" stroke="#c084fc" stroke-width="1" opacity="0.18"/>
<circle cx="72" cy="473" r="3" fill="#c084fc" opacity="0.25"/>
<line x1="65" y1="549" x2="95" y2="549" stroke="#c084fc" stroke-width="1" opacity="0.18"/>
<line x1="65" y1="549" x2="65" y2="579" stroke="#c084fc" stroke-width="1" opacity="0.18"/>
<circle cx="65" cy="549" r="3" fill="#c084fc" opacity="0.25"/>
<line x1="231" y1="-12" x2="261" y2="-12" stroke="#c084fc" stroke-width="1" opacity="0.18"/>
<line x1="231" y1="-12" x2="231" y2="18" stroke="#c084fc" stroke-width="1" opacity="0.18"/>
<circle cx="231" cy="-12" r="3" fill="#c084fc" opacity="0.25"/>
<line x1="253" y1="225" x2="283" y2="225" stroke="#c084fc" stroke-width="1" opacity="0.18"/>
<line x1="253" y1="225" x2="253" y2="255" stroke="#c084fc" stroke-width="1" opacity="0.18"/>
<circle cx="253" cy="225" r="3" fill="#c084fc" opacity="0.25"/>
<line x1="229" y1="339" x2="259" y2="339" stroke="#c084fc" stroke-width="1" opacity="0.18"/>
<line x1="229" y1="339" x2="229" y2="369" stroke="#c084fc" stroke-width="1" opacity="0.18"/>
<circle cx="229" cy="339" r="3" fill="#c084fc" opacity="0.25"/>
<line x1="306" y1="495" x2="336" y2="495" stroke="#c084fc" stroke-width="1" opacity="0.18"/>
<line x1="306" y1="495" x2="306" y2="525" stroke="#c084fc" stroke-width="1" opacity="0.18"/>
<circle cx="306" cy="495" r="3" fill="#c084fc" opacity="0.25"/>
<line x1="313" y1="640" x2="343" y2="640" stroke="#c084fc" stroke-width="1" opacity="0.18"/>
<line x1="313" y1="640" x2="313" y2="670" stroke="#c084fc" stroke-width="1" opacity="0.18"/>
<circle cx="313" cy="640" r="3" fill="#c084fc" opacity="0.25"/>
<line x1="397" y1="-19" x2="427" y2="-19" stroke="#c084fc" stroke-width="1" opacity="0.18"/>
<line x1="397" y1="-19" x2="397" y2="11" stroke="#c084fc" stroke-width="1" opacity="0.18"/>
<circle cx="397" cy="-19" r="3" fill="#c084fc" opacity="0.25"/>
<line x1="384" y1="98" x2="414" y2="98" stroke="#c084fc" stroke-width="1" opacity="0.18"/>
<line x1="384" y1="98" x2="384" y2="128" stroke="#c084fc" stroke-width="1" opacity="0.18"/>
<circle cx="384" cy="98" r="3" fill="#c084fc" opacity="0.25"/>
<line x1="388" y1="164" x2="418" y2="164" stroke="#c084fc" stroke-width="1" opacity="0.18"/>
<line x1="388" y1="164" x2="388" y2="194" stroke="#c084fc" stroke-width="1" opacity="0.18"/>
<circle cx="388" cy="164" r="3" fill="#c084fc" opacity="0.25"/>
<line x1="543" y1="-4" x2="573" y2="-4" stroke="#c084fc" stroke-width="1" opacity="0.18"/>
<line x1="543" y1="-4" x2="543" y2="26" stroke="#c084fc" stroke-width="1" opacity="0.18"/>
<circle cx="543" cy="-4" r="3" fill="#c084fc" opacity="0.25"/>
<line x1="562" y1="306" x2="592" y2="306" stroke="#c084fc" stroke-width="1" opacity="0.18"/>
<line x1="562" y1="306" x2="562" y2="336" stroke="#c084fc" stroke-width="1" opacity="0.18"/>
<circle cx="562" cy="306" r="3" fill="#c084fc" opacity="0.25"/>
<line x1="540" y1="481" x2="570" y2="481" stroke="#c084fc" stroke-width="1" opacity="0.18"/>
<line x1="540" y1="481" x2="540" y2="511" stroke="#c084fc" stroke-width="1" opacity="0.18"/>
<circle cx="540" cy="481" r="3" fill="#c084fc" opacity="0.25"/>
<line x1="650" y1="7" x2="680" y2="7" stroke="#c084fc" stroke-width="1" opacity="0.18"/>
<line x1="650" y1="7" x2="650" y2="37" stroke="#c084fc" stroke-width="1" opacity="0.18"/>
<circle cx="650" cy="7" r="3" fill="#c084fc" opacity="0.25"/>
<line x1="737" y1="7" x2="767" y2="7" stroke="#c084fc" stroke-width="1" opacity="0.18"/>
<line x1="737" y1="7" x2="737" y2="37" stroke="#c084fc" stroke-width="1" opacity="0.18"/>
<circle cx="737" cy="7" r="3" fill="#c084fc" opacity="0.25"/>
<line x1="808" y1="409" x2="838" y2="409" stroke="#c084fc" stroke-width="1" opacity="0.18"/>
<line x1="808" y1="409" x2="808" y2="439" stroke="#c084fc" stroke-width="1" opacity="0.18"/>
<circle cx="808" cy="409" r="3" fill="#c084fc" opacity="0.25"/>
<line x1="785" y1="563" x2="815" y2="563" stroke="#c084fc" stroke-width="1" opacity="0.18"/>
<line x1="785" y1="563" x2="785" y2="593" stroke="#c084fc" stroke-width="1" opacity="0.18"/>
<circle cx="785" cy="563" r="3" fill="#c084fc" opacity="0.25"/>
<line x1="896" y1="169" x2="926" y2="169" stroke="#c084fc" stroke-width="1" opacity="0.18"/>
<line x1="896" y1="169" x2="896" y2="199" stroke="#c084fc" stroke-width="1" opacity="0.18"/>
<circle cx="896" cy="169" r="3" fill="#c084fc" opacity="0.25"/>
<line x1="942" y1="634" x2="972" y2="634" stroke="#c084fc" stroke-width="1" opacity="0.18"/>
<line x1="942" y1="634" x2="942" y2="664" stroke="#c084fc" stroke-width="1" opacity="0.18"/>
<circle cx="942" cy="634" r="3" fill="#c084fc" opacity="0.25"/>
<line x1="1057" y1="223" x2="1087" y2="223" stroke="#c084fc" stroke-width="1" opacity="0.18"/>
<line x1="1057" y1="223" x2="1057" y2="253" stroke="#c084fc" stroke-width="1" opacity="0.18"/>
<circle cx="1057" cy="223" r="3" fill="#c084fc" opacity="0.25"/>
<line x1="1031" y1="551" x2="1061" y2="551" stroke="#c084fc" stroke-width="1" opacity="0.18"/>
<line x1="1031" y1="551" x2="1031" y2="581" stroke="#c084fc" stroke-width="1" opacity="0.18"/>
<circle cx="1031" cy="551" r="3" fill="#c084fc" opacity="0.25"/>
<line x1="1140" y1="98" x2="1170" y2="98" stroke="#c084fc" stroke-width="1" opacity="0.18"/>
<line x1="1140" y1="98" x2="1140" y2="128" stroke="#c084fc" stroke-width="1" opacity="0.18"/>
<circle cx="1140" cy="98" r="3" fill="#c084fc" opacity="0.25"/>
<line x1="1119" y1="643" x2="1149" y2="643" stroke="#c084fc" stroke-width="1" opacity="0.18"/>
<line x1="1119" y1="643" x2="1119" y2="673" stroke="#c084fc" stroke-width="1" opacity="0.18"/>
<circle cx="1119" cy="643" r="3" fill="#c084fc" opacity="0.25"/>
<line x1="1217" y1="393" x2="1247" y2="393" stroke="#c084fc" stroke-width="1" opacity="0.18"/>
<line x1="1217" y1="393" x2="1217" y2="423" stroke="#c084fc" stroke-width="1" opacity="0.18"/>
<circle cx="1217" cy="393" r="3" fill="#c084fc" opacity="0.25"/>
<line x1="1204" y1="482" x2="1234" y2="482" stroke="#c084fc" stroke-width="1" opacity="0.18"/>
<line x1="1204" y1="482" x2="1204" y2="512" stroke="#c084fc" stroke-width="1" opacity="0.18"/>
<circle cx="1204" cy="482" r="3" fill="#c084fc" opacity="0.25"/>
<line x1="1189" y1="566" x2="1219" y2="566" stroke="#c084fc" stroke-width="1" opacity="0.18"/>
<line x1="1189" y1="566" x2="1189" y2="596" stroke="#c084fc" stroke-width="1" opacity="0.18"/>
<circle cx="1189" cy="566" r="3" fill="#c084fc" opacity="0.25"/>
<circle cx="1066" cy="482" r="220" fill="url(#orbGrad45479)" opacity="0.35"/>

  <!-- Subtle vignette -->
  <rect width="1280" height="720" fill="url(#o_24935440)" opacity="0.15"/>

  <!-- Provider logo / wordmark -->
  <g transform="translate(60, 80)">
  <text x="0" y="0" font-family="Georgia, serif" font-size="36" font-weight="700" fill="#d97757" letter-spacing="2">Anthropic</text>
  <line x1="0" y1="14" x2="200" y2="14" stroke="#c084fc" stroke-width="2" opacity="0.6"/>
  <text x="0" y="38" font-family="ui-monospace, 'JetBrains Mono', monospace" font-size="13" fill="#d97757" opacity="0.65" letter-spacing="3">SKILLJAR · OFFICIAL</text>
</g>

  <!-- Tier pill (top-left, below logo) -->
  <g transform="translate(60, 145)">
    <rect x="0" y="0" width="100" height="32" rx="16" fill="#c8956c"/>
    <text x="50" y="21" font-family="ui-monospace, 'JetBrains Mono', monospace" font-size="13" font-weight="700" fill="#1a1005" text-anchor="middle" letter-spacing="2">SHIP</text>
  </g>

  <!-- Quality tier badge (top-right) -->
  <g transform="translate(1170, 60)">
    <circle cx="0" cy="0" r="40" fill="#fbbf24" opacity="0.20"/>
    <circle cx="0" cy="0" r="32" fill="none" stroke="#fbbf24" stroke-width="2.5"/>
    <text x="0" y="12" font-family="Georgia, serif" font-size="38" font-weight="900" fill="#fbbf24" text-anchor="middle">S</text>
    <text x="0" y="60" font-family="ui-monospace, monospace" font-size="10" fill="#fbbf24" text-anchor="middle" letter-spacing="2" opacity="0.8">GOLD</text>
  </g>

  <!-- Course title -->
  <text x="60" y="346.0" font-family="Inter, system-ui, -apple-system, sans-serif" font-size="70" font-weight="800" fill="#f5e6d3" letter-spacing="-2">Building Compound</text><text x="60" y="419.5" font-family="Inter, system-ui, -apple-system, sans-serif" font-size="70" font-weight="800" fill="#f5e6d3" letter-spacing="-2">AI Systems</text><text x="60" y="296.0" font-family="ui-monospace, 'JetBrains Mono', monospace" font-size="14" fill="#c084fc" opacity="0.85" letter-spacing="4">ANTHROPIC · SHIP TRACK</text><text x="60" y="543.0" font-family="ui-monospace, monospace" font-size="16" fill="#d97757" letter-spacing="2">⚡ +320 XP</text>

  <!-- AI TRAINING HUB footer -->
  <g transform="translate(60, 670)">
    <line x1="0" y1="-10" x2="30" y2="-10" stroke="#d97757" stroke-width="2" opacity="0.7"/>
    <text x="0" y="0" font-family="ui-monospace, 'JetBrains Mono', monospace" font-size="13" fill="#d97757" letter-spacing="4" opacity="0.85">AI TRAINING HUB</text>
    <text x="0" y="18" font-family="ui-monospace, monospace" font-size="10" fill="#c084fc" letter-spacing="2" opacity="0.55">COURSE · ANTHROPIC-AGENTS-COMPOUND</text>
  </g>

  <!-- Right side meta (provider + url hint) -->
  <g transform="translate(1220, 670)" text-anchor="end">
    <line x1="-30" y1="-10" x2="0" y2="-10" stroke="#d97757" stroke-width="2" opacity="0.7"/>
    <text x="0" y="0" font-family="ui-monospace, 'JetBrains Mono', monospace" font-size="13" fill="#d97757" letter-spacing="3" opacity="0.85">ANTHROPIC</text>
    <text x="0" y="18" font-family="ui-monospace, monospace" font-size="10" fill="#c084fc" letter-spacing="2" opacity="0.55">TIER S · 320 XP</text>
  </g>

  <!-- Subtle border accent -->
  <rect x="20" y="20" width="1240" height="680" fill="none" stroke="#d97757" stroke-width="1" opacity="0.10" rx="8"/>
</svg>
