<?xml version="1.0" encoding="UTF-8"?>
<svg xmlns="http://www.w3.org/2000/svg" viewBox="0 0 1280 720" width="1280" height="720">
  <defs>
    <linearGradient id="g_28695817" x1="0" y1="0" x2="1" y2="1">
      <stop offset="0%" stop-color="#1a1410"/>
      <stop offset="100%" stop-color="#0a0805"/>
    </linearGradient>
    <radialGradient id="o_89523876" cx="50%" cy="50%" r="50%">
      <stop offset="0%" stop-color="#ff9900" stop-opacity="0.6"/>
      <stop offset="100%" stop-color="#ff9900" stop-opacity="0"/>
    </radialGradient>
    <marker id="a_29937221" markerWidth="10" markerHeight="10" refX="8" refY="3" orient="auto" markerUnits="strokeWidth">
      <path d="M0,0 L0,6 L9,3 z" fill="#ff9900"/>
    </marker>
    <filter id="softShadow" x="-20%" y="-20%" width="140%" height="140%">
      <feGaussianBlur in="SourceAlpha" stdDeviation="6"/>
      <feOffset dx="0" dy="2" result="offsetblur"/>
      <feComponentTransfer><feFuncA type="linear" slope="0.4"/></feComponentTransfer>
      <feMerge><feMergeNode/><feMergeNode in="SourceGraphic"/></feMerge>
    </filter>
  </defs>

  <!-- Background gradient -->
  <rect width="1280" height="720" fill="url(#g_28695817)"/>

  <!-- Decorative pattern -->
  <g transform="translate(60,60)" opacity="0.10">
<polygon points="0,-30 26,-15 26,15 0,30 -26,15 -26,-15" fill="none" stroke="#ff9900" stroke-width="1.5"/>
</g>
<g transform="translate(60,420)" opacity="0.10">
<polygon points="0,-30 26,-15 26,15 0,30 -26,15 -26,-15" fill="none" stroke="#ff9900" stroke-width="1.5"/>
</g>
<g transform="translate(60,540)" opacity="0.10">
<polygon points="0,-30 26,-15 26,15 0,30 -26,15 -26,-15" fill="none" stroke="#ff9900" stroke-width="1.5"/>
</g>
<g transform="translate(180,300)" opacity="0.10">
<polygon points="0,-30 26,-15 26,15 0,30 -26,15 -26,-15" fill="none" stroke="#ff9900" stroke-width="1.5"/>
</g>
<g transform="translate(180,420)" opacity="0.10">
<polygon points="0,-30 26,-15 26,15 0,30 -26,15 -26,-15" fill="none" stroke="#ff9900" stroke-width="1.5"/>
</g>
<g transform="translate(180,540)" opacity="0.10">
<polygon points="0,-30 26,-15 26,15 0,30 -26,15 -26,-15" fill="none" stroke="#ff9900" stroke-width="1.5"/>
</g>
<g transform="translate(180,660)" opacity="0.10">
<polygon points="0,-30 26,-15 26,15 0,30 -26,15 -26,-15" fill="none" stroke="#ff9900" stroke-width="1.5"/>
</g>
<g transform="translate(300,60)" opacity="0.10">
<polygon points="0,-30 26,-15 26,15 0,30 -26,15 -26,-15" fill="none" stroke="#ff9900" stroke-width="1.5"/>
</g>
<g transform="translate(300,420)" opacity="0.10">
<polygon points="0,-30 26,-15 26,15 0,30 -26,15 -26,-15" fill="none" stroke="#ff9900" stroke-width="1.5"/>
</g>
<g transform="translate(300,540)" opacity="0.10">
<polygon points="0,-30 26,-15 26,15 0,30 -26,15 -26,-15" fill="none" stroke="#ff9900" stroke-width="1.5"/>
</g>
<g transform="translate(420,60)" opacity="0.10">
<polygon points="0,-30 26,-15 26,15 0,30 -26,15 -26,-15" fill="none" stroke="#ff9900" stroke-width="1.5"/>
</g>
<g transform="translate(420,300)" opacity="0.10">
<polygon points="0,-30 26,-15 26,15 0,30 -26,15 -26,-15" fill="none" stroke="#ff9900" stroke-width="1.5"/>
</g>
<g transform="translate(420,420)" opacity="0.10">
<polygon points="0,-30 26,-15 26,15 0,30 -26,15 -26,-15" fill="none" stroke="#ff9900" stroke-width="1.5"/>
</g>
<g transform="translate(420,540)" opacity="0.10">
<polygon points="0,-30 26,-15 26,15 0,30 -26,15 -26,-15" fill="none" stroke="#ff9900" stroke-width="1.5"/>
</g>
<g transform="translate(540,180)" opacity="0.10">
<polygon points="0,-30 26,-15 26,15 0,30 -26,15 -26,-15" fill="none" stroke="#ff9900" stroke-width="1.5"/>
</g>
<g transform="translate(540,420)" opacity="0.10">
<polygon points="0,-30 26,-15 26,15 0,30 -26,15 -26,-15" fill="none" stroke="#ff9900" stroke-width="1.5"/>
</g>
<g transform="translate(540,540)" opacity="0.10">
<polygon points="0,-30 26,-15 26,15 0,30 -26,15 -26,-15" fill="none" stroke="#ff9900" stroke-width="1.5"/>
</g>
<g transform="translate(540,660)" opacity="0.10">
<polygon points="0,-30 26,-15 26,15 0,30 -26,15 -26,-15" fill="none" stroke="#ff9900" stroke-width="1.5"/>
</g>
<g transform="translate(660,300)" opacity="0.10">
<polygon points="0,-30 26,-15 26,15 0,30 -26,15 -26,-15" fill="none" stroke="#ff9900" stroke-width="1.5"/>
</g>
<g transform="translate(660,660)" opacity="0.10">
<polygon points="0,-30 26,-15 26,15 0,30 -26,15 -26,-15" fill="none" stroke="#ff9900" stroke-width="1.5"/>
</g>
<g transform="translate(780,180)" opacity="0.10">
<polygon points="0,-30 26,-15 26,15 0,30 -26,15 -26,-15" fill="none" stroke="#ff9900" stroke-width="1.5"/>
</g>
<g transform="translate(780,420)" opacity="0.10">
<polygon points="0,-30 26,-15 26,15 0,30 -26,15 -26,-15" fill="none" stroke="#ff9900" stroke-width="1.5"/>
</g>
<g transform="translate(900,60)" opacity="0.10">
<polygon points="0,-30 26,-15 26,15 0,30 -26,15 -26,-15" fill="none" stroke="#ff9900" stroke-width="1.5"/>
</g>
<g transform="translate(900,180)" opacity="0.10">
<polygon points="0,-30 26,-15 26,15 0,30 -26,15 -26,-15" fill="none" stroke="#ff9900" stroke-width="1.5"/>
</g>
<g transform="translate(900,300)" opacity="0.10">
<polygon points="0,-30 26,-15 26,15 0,30 -26,15 -26,-15" fill="none" stroke="#ff9900" stroke-width="1.5"/>
</g>
<g transform="translate(900,540)" opacity="0.10">
<polygon points="0,-30 26,-15 26,15 0,30 -26,15 -26,-15" fill="none" stroke="#ff9900" stroke-width="1.5"/>
</g>
<g transform="translate(900,660)" opacity="0.10">
<polygon points="0,-30 26,-15 26,15 0,30 -26,15 -26,-15" fill="none" stroke="#ff9900" stroke-width="1.5"/>
</g>
<g transform="translate(1020,180)" opacity="0.10">
<polygon points="0,-30 26,-15 26,15 0,30 -26,15 -26,-15" fill="none" stroke="#ff9900" stroke-width="1.5"/>
</g>
<g transform="translate(1020,300)" opacity="0.10">
<polygon points="0,-30 26,-15 26,15 0,30 -26,15 -26,-15" fill="none" stroke="#ff9900" stroke-width="1.5"/>
</g>
<g transform="translate(1020,660)" opacity="0.10">
<polygon points="0,-30 26,-15 26,15 0,30 -26,15 -26,-15" fill="none" stroke="#ff9900" stroke-width="1.5"/>
</g>
<g transform="translate(1140,60)" opacity="0.10">
<polygon points="0,-30 26,-15 26,15 0,30 -26,15 -26,-15" fill="none" stroke="#ff9900" stroke-width="1.5"/>
</g>
<g transform="translate(1140,180)" opacity="0.10">
<polygon points="0,-30 26,-15 26,15 0,30 -26,15 -26,-15" fill="none" stroke="#ff9900" stroke-width="1.5"/>
</g>
<g transform="translate(1140,540)" opacity="0.10">
<polygon points="0,-30 26,-15 26,15 0,30 -26,15 -26,-15" fill="none" stroke="#ff9900" stroke-width="1.5"/>
</g>
<g transform="translate(1260,180)" opacity="0.10">
<polygon points="0,-30 26,-15 26,15 0,30 -26,15 -26,-15" fill="none" stroke="#ff9900" stroke-width="1.5"/>
</g>
<g transform="translate(1260,300)" opacity="0.10">
<polygon points="0,-30 26,-15 26,15 0,30 -26,15 -26,-15" fill="none" stroke="#ff9900" stroke-width="1.5"/>
</g>
<text x="1000" y="600" font-size="380" font-family="serif" fill="#ff9900" opacity="0.10" font-weight="bold">λ</text>

  <!-- Subtle vignette -->
  <rect width="1280" height="720" fill="url(#o_89523876)" opacity="0.15"/>

  <!-- Provider logo / wordmark -->
  <g transform="translate(60, 80)">
  <text x="0" y="0" font-family="Arial Black, sans-serif" font-size="48" font-weight="900" fill="#ff9900" letter-spacing="-1">aws</text>
  <text x="0" y="28" font-family="ui-monospace, monospace" font-size="14" fill="#ff9900" opacity="0.75" letter-spacing="3">CERTIFIED · AI PRACTITIONER</text>
  <line x1="0" y1="40" x2="120" y2="40" stroke="#ff9900" stroke-width="2" opacity="0.5"/>
</g>

  <!-- Tier pill (top-left, below logo) -->
  <g transform="translate(60, 145)">
    <rect x="0" y="0" width="100" height="32" rx="16" fill="#7c9885"/>
    <text x="50" y="21" font-family="ui-monospace, 'JetBrains Mono', monospace" font-size="13" font-weight="700" fill="#0d1117" text-anchor="middle" letter-spacing="2">LEARN</text>
  </g>

  <!-- Quality tier badge (top-right) -->
  <g transform="translate(1170, 60)">
    <circle cx="0" cy="0" r="40" fill="#fbbf24" opacity="0.20"/>
    <circle cx="0" cy="0" r="32" fill="none" stroke="#fbbf24" stroke-width="2.5"/>
    <text x="0" y="12" font-family="Georgia, serif" font-size="38" font-weight="900" fill="#fbbf24" text-anchor="middle">S</text>
    <text x="0" y="60" font-family="ui-monospace, monospace" font-size="10" fill="#fbbf24" text-anchor="middle" letter-spacing="2" opacity="0.8">GOLD</text>
  </g>

  <!-- Course title -->
  <text x="60" y="303.45" font-family="Inter, system-ui, -apple-system, sans-serif" font-size="78" font-weight="800" fill="#f5e6d3" letter-spacing="-2">AWS Certified AI</text><text x="60" y="385.35" font-family="Inter, system-ui, -apple-system, sans-serif" font-size="78" font-weight="800" fill="#f5e6d3" letter-spacing="-2">Practitioner</text><text x="60" y="467.25" font-family="Inter, system-ui, -apple-system, sans-serif" font-size="78" font-weight="800" fill="#f5e6d3" letter-spacing="-2">(AIF-C01)</text><text x="60" y="253.45" font-family="ui-monospace, 'JetBrains Mono', monospace" font-size="14" fill="#232f3e" opacity="0.85" letter-spacing="4">AWS · LEARN TRACK</text><text x="60" y="599.15" font-family="ui-monospace, monospace" font-size="16" fill="#ff9900" letter-spacing="2">⚡ +300 XP</text>

  <!-- AI TRAINING HUB footer -->
  <g transform="translate(60, 670)">
    <line x1="0" y1="-10" x2="30" y2="-10" stroke="#ff9900" stroke-width="2" opacity="0.7"/>
    <text x="0" y="0" font-family="ui-monospace, 'JetBrains Mono', monospace" font-size="13" fill="#ff9900" letter-spacing="4" opacity="0.85">AI TRAINING HUB</text>
    <text x="0" y="18" font-family="ui-monospace, monospace" font-size="10" fill="#232f3e" letter-spacing="2" opacity="0.55">COURSE · AWS-AI-PRACTITIONER</text>
  </g>

  <!-- Right side meta (provider + url hint) -->
  <g transform="translate(1220, 670)" text-anchor="end">
    <line x1="-30" y1="-10" x2="0" y2="-10" stroke="#ff9900" stroke-width="2" opacity="0.7"/>
    <text x="0" y="0" font-family="ui-monospace, 'JetBrains Mono', monospace" font-size="13" fill="#ff9900" letter-spacing="3" opacity="0.85">AWS</text>
    <text x="0" y="18" font-family="ui-monospace, monospace" font-size="10" fill="#232f3e" letter-spacing="2" opacity="0.55">TIER S · 300 XP</text>
  </g>

  <!-- Subtle border accent -->
  <rect x="20" y="20" width="1240" height="680" fill="none" stroke="#ff9900" stroke-width="1" opacity="0.10" rx="8"/>
</svg>
