<?xml version="1.0" encoding="UTF-8"?>
<svg xmlns="http://www.w3.org/2000/svg" viewBox="0 0 1280 720" width="1280" height="720">
  <defs>
    <linearGradient id="g_51604469" x1="0" y1="0" x2="1" y2="1">
      <stop offset="0%" stop-color="#0d1117"/>
      <stop offset="100%" stop-color="#010409"/>
    </linearGradient>
    <radialGradient id="o_18168602" cx="50%" cy="50%" r="50%">
      <stop offset="0%" stop-color="#ffffff" stop-opacity="0.6"/>
      <stop offset="100%" stop-color="#ffffff" stop-opacity="0"/>
    </radialGradient>
    <marker id="a_38380228" markerWidth="10" markerHeight="10" refX="8" refY="3" orient="auto" markerUnits="strokeWidth">
      <path d="M0,0 L0,6 L9,3 z" fill="#ffffff"/>
    </marker>
    <filter id="softShadow" x="-20%" y="-20%" width="140%" height="140%">
      <feGaussianBlur in="SourceAlpha" stdDeviation="6"/>
      <feOffset dx="0" dy="2" result="offsetblur"/>
      <feComponentTransfer><feFuncA type="linear" slope="0.4"/></feComponentTransfer>
      <feMerge><feMergeNode/><feMergeNode in="SourceGraphic"/></feMerge>
    </filter>
  </defs>

  <!-- Background gradient -->
  <rect width="1280" height="720" fill="url(#g_51604469)"/>

  <!-- Decorative pattern -->
  <circle cx="194" cy="120" r="3" fill="#7c9885" opacity="0.4"/>
<line x1="194" y1="120" x2="194" y2="160" stroke="#7c9885" stroke-width="1" opacity="0.18"/>
<circle cx="194" cy="200" r="3" fill="#7c9885" opacity="0.4"/>
<line x1="194" y1="200" x2="194" y2="240" stroke="#7c9885" stroke-width="1" opacity="0.18"/>
<circle cx="194" cy="280" r="3" fill="#7c9885" opacity="0.4"/>
<line x1="194" y1="280" x2="194" y2="320" stroke="#7c9885" stroke-width="1" opacity="0.18"/>
<circle cx="194" cy="320" r="3" fill="#7c9885" opacity="0.4"/>
<line x1="194" y1="320" x2="194" y2="360" stroke="#7c9885" stroke-width="1" opacity="0.18"/>
<circle cx="194" cy="360" r="3" fill="#7c9885" opacity="0.4"/>
<line x1="194" y1="360" x2="194" y2="400" stroke="#7c9885" stroke-width="1" opacity="0.18"/>
<circle cx="194" cy="400" r="3" fill="#7c9885" opacity="0.4"/>
<line x1="194" y1="400" x2="194" y2="440" stroke="#7c9885" stroke-width="1" opacity="0.18"/>
<circle cx="271" cy="80" r="3" fill="#7c9885" opacity="0.4"/>
<line x1="271" y1="80" x2="271" y2="120" stroke="#7c9885" stroke-width="1" opacity="0.18"/>
<circle cx="271" cy="120" r="3" fill="#7c9885" opacity="0.4"/>
<line x1="271" y1="120" x2="271" y2="160" stroke="#7c9885" stroke-width="1" opacity="0.18"/>
<circle cx="271" cy="240" r="3" fill="#7c9885" opacity="0.4"/>
<line x1="271" y1="240" x2="271" y2="280" stroke="#7c9885" stroke-width="1" opacity="0.18"/>
<circle cx="271" cy="320" r="3" fill="#7c9885" opacity="0.4"/>
<line x1="271" y1="320" x2="271" y2="360" stroke="#7c9885" stroke-width="1" opacity="0.18"/>
<circle cx="271" cy="360" r="3" fill="#7c9885" opacity="0.4"/>
<line x1="271" y1="360" x2="271" y2="400" stroke="#7c9885" stroke-width="1" opacity="0.18"/>
<circle cx="271" cy="440" r="3" fill="#7c9885" opacity="0.4"/>
<line x1="271" y1="440" x2="271" y2="480" stroke="#7c9885" stroke-width="1" opacity="0.18"/>
<circle cx="271" cy="480" r="3" fill="#7c9885" opacity="0.4"/>
<line x1="271" y1="480" x2="271" y2="520" stroke="#7c9885" stroke-width="1" opacity="0.18"/>
<circle cx="271" cy="520" r="3" fill="#7c9885" opacity="0.4"/>
<line x1="271" y1="520" x2="271" y2="560" stroke="#7c9885" stroke-width="1" opacity="0.18"/>
<circle cx="271" cy="600" r="3" fill="#7c9885" opacity="0.4"/>
<line x1="271" y1="600" x2="271" y2="640" stroke="#7c9885" stroke-width="1" opacity="0.18"/>
<circle cx="369" cy="160" r="3" fill="#7c9885" opacity="0.4"/>
<line x1="369" y1="160" x2="369" y2="200" stroke="#7c9885" stroke-width="1" opacity="0.18"/>
<circle cx="369" cy="240" r="3" fill="#7c9885" opacity="0.4"/>
<line x1="369" y1="240" x2="369" y2="280" stroke="#7c9885" stroke-width="1" opacity="0.18"/>
<circle cx="369" cy="280" r="3" fill="#7c9885" opacity="0.4"/>
<line x1="369" y1="280" x2="369" y2="320" stroke="#7c9885" stroke-width="1" opacity="0.18"/>
<circle cx="369" cy="440" r="3" fill="#7c9885" opacity="0.4"/>
<line x1="369" y1="440" x2="369" y2="480" stroke="#7c9885" stroke-width="1" opacity="0.18"/>
<circle cx="369" cy="480" r="3" fill="#7c9885" opacity="0.4"/>
<line x1="369" y1="480" x2="369" y2="520" stroke="#7c9885" stroke-width="1" opacity="0.18"/>
<circle cx="369" cy="520" r="3" fill="#7c9885" opacity="0.4"/>
<line x1="369" y1="520" x2="369" y2="560" stroke="#7c9885" stroke-width="1" opacity="0.18"/>
<circle cx="443" cy="80" r="3" fill="#7c9885" opacity="0.4"/>
<line x1="443" y1="80" x2="443" y2="120" stroke="#7c9885" stroke-width="1" opacity="0.18"/>
<circle cx="443" cy="120" r="3" fill="#7c9885" opacity="0.4"/>
<line x1="443" y1="120" x2="443" y2="160" stroke="#7c9885" stroke-width="1" opacity="0.18"/>
<circle cx="443" cy="160" r="3" fill="#7c9885" opacity="0.4"/>
<line x1="443" y1="160" x2="443" y2="200" stroke="#7c9885" stroke-width="1" opacity="0.18"/>
<circle cx="443" cy="200" r="3" fill="#7c9885" opacity="0.4"/>
<line x1="443" y1="200" x2="443" y2="240" stroke="#7c9885" stroke-width="1" opacity="0.18"/>
<circle cx="443" cy="240" r="3" fill="#7c9885" opacity="0.4"/>
<line x1="443" y1="240" x2="443" y2="280" stroke="#7c9885" stroke-width="1" opacity="0.18"/>
<circle cx="443" cy="280" r="3" fill="#7c9885" opacity="0.4"/>
<line x1="443" y1="280" x2="443" y2="320" stroke="#7c9885" stroke-width="1" opacity="0.18"/>
<circle cx="443" cy="440" r="3" fill="#7c9885" opacity="0.4"/>
<line x1="443" y1="440" x2="443" y2="480" stroke="#7c9885" stroke-width="1" opacity="0.18"/>
<circle cx="443" cy="520" r="3" fill="#7c9885" opacity="0.4"/>
<line x1="443" y1="520" x2="443" y2="560" stroke="#7c9885" stroke-width="1" opacity="0.18"/>
<circle cx="512" cy="160" r="3" fill="#7c9885" opacity="0.4"/>
<line x1="512" y1="160" x2="512" y2="200" stroke="#7c9885" stroke-width="1" opacity="0.18"/>
<circle cx="512" cy="280" r="3" fill="#7c9885" opacity="0.4"/>
<line x1="512" y1="280" x2="512" y2="320" stroke="#7c9885" stroke-width="1" opacity="0.18"/>
<circle cx="512" cy="360" r="3" fill="#7c9885" opacity="0.4"/>
<line x1="512" y1="360" x2="512" y2="400" stroke="#7c9885" stroke-width="1" opacity="0.18"/>
<circle cx="512" cy="400" r="3" fill="#7c9885" opacity="0.4"/>
<line x1="512" y1="400" x2="512" y2="440" stroke="#7c9885" stroke-width="1" opacity="0.18"/>
<circle cx="512" cy="440" r="3" fill="#7c9885" opacity="0.4"/>
<line x1="512" y1="440" x2="512" y2="480" stroke="#7c9885" stroke-width="1" opacity="0.18"/>
<circle cx="512" cy="480" r="3" fill="#7c9885" opacity="0.4"/>
<line x1="512" y1="480" x2="512" y2="520" stroke="#7c9885" stroke-width="1" opacity="0.18"/>
<circle cx="512" cy="600" r="3" fill="#7c9885" opacity="0.4"/>
<line x1="512" y1="600" x2="512" y2="640" stroke="#7c9885" stroke-width="1" opacity="0.18"/>
<circle cx="610" cy="160" r="3" fill="#7c9885" opacity="0.4"/>
<line x1="610" y1="160" x2="610" y2="200" stroke="#7c9885" stroke-width="1" opacity="0.18"/>
<circle cx="610" cy="320" r="3" fill="#7c9885" opacity="0.4"/>
<line x1="610" y1="320" x2="610" y2="360" stroke="#7c9885" stroke-width="1" opacity="0.18"/>
<circle cx="610" cy="360" r="3" fill="#7c9885" opacity="0.4"/>
<line x1="610" y1="360" x2="610" y2="400" stroke="#7c9885" stroke-width="1" opacity="0.18"/>
<circle cx="610" cy="400" r="3" fill="#7c9885" opacity="0.4"/>
<line x1="610" y1="400" x2="610" y2="440" stroke="#7c9885" stroke-width="1" opacity="0.18"/>
<circle cx="610" cy="520" r="3" fill="#7c9885" opacity="0.4"/>
<line x1="610" y1="520" x2="610" y2="560" stroke="#7c9885" stroke-width="1" opacity="0.18"/>
<circle cx="610" cy="560" r="3" fill="#7c9885" opacity="0.4"/>
<line x1="610" y1="560" x2="610" y2="600" stroke="#7c9885" stroke-width="1" opacity="0.18"/>
<circle cx="610" cy="600" r="3" fill="#7c9885" opacity="0.4"/>
<line x1="610" y1="600" x2="610" y2="640" stroke="#7c9885" stroke-width="1" opacity="0.18"/>
<g transform="translate(1060,480)" opacity="0.18">
<circle cx="0" cy="0" r="120" fill="#ffffff"/>
<path d="M -100,40 Q -120,100 -80,140 M 100,40 Q 120,100 80,140 M -40,90 Q -60,150 -20,170 M 40,90 Q 60,150 20,170" stroke="#ffffff" stroke-width="22" fill="none" stroke-linecap="round"/>
<circle cx="-30" cy="-20" r="6" fill="#0d1117"/>
<circle cx="30" cy="-20" r="6" fill="#0d1117"/>
</g>

  <!-- Subtle vignette -->
  <rect width="1280" height="720" fill="url(#o_18168602)" opacity="0.15"/>

  <!-- Provider logo / wordmark -->
  <g transform="translate(60, 80)">
  <g transform="translate(0,-20)">
    <circle cx="22" cy="22" r="22" fill="#ffffff"/>
    <path d="M22,8 C14,8 8,14 8,22 C8,28 12,33 17,35 C17,33 17,32 18,31 C13,30 12,27 12,27 C11,25 10,25 10,25 C9,24 10,24 10,24 C12,24 13,26 13,26 C14,28 17,27 17,27 C17,26 18,25 18,24 C14,24 11,22 11,18 C11,16 12,15 13,14 C13,13 12,12 12,11 C12,11 13,10 14,11 C15,10 18,10 20,11 C21,10 22,11 22,11 C22,12 21,13 21,14 C22,15 23,16 23,18 C23,22 20,24 16,24 C16,25 17,26 17,27 C18,29 19,32 19,35 C24,33 28,28 28,22 C28,14 22,8 22,8 Z" fill="#0d1117"/>
  </g>
  <text x="60" y="20" font-family="Georgia, serif" font-size="32" font-weight="700" fill="#ffffff" letter-spacing="1">GitHub</text>
  <text x="60" y="44" font-family="ui-monospace, 'JetBrains Mono', monospace" font-size="12" fill="#7c9885" letter-spacing="2">FOUNDATIONS · GH-900</text>
</g>

  <!-- Tier pill (top-left, below logo) -->
  <g transform="translate(60, 145)">
    <rect x="0" y="0" width="100" height="32" rx="16" fill="#7c9885"/>
    <text x="50" y="21" font-family="ui-monospace, 'JetBrains Mono', monospace" font-size="13" font-weight="700" fill="#0d1117" text-anchor="middle" letter-spacing="2">LEARN</text>
  </g>

  <!-- Quality tier badge (top-right) -->
  <g transform="translate(1170, 60)">
    <circle cx="0" cy="0" r="40" fill="#d1d5db" opacity="0.20"/>
    <circle cx="0" cy="0" r="32" fill="none" stroke="#d1d5db" stroke-width="2.5"/>
    <text x="0" y="12" font-family="Georgia, serif" font-size="38" font-weight="900" fill="#d1d5db" text-anchor="middle">A</text>
    <text x="0" y="60" font-family="ui-monospace, monospace" font-size="10" fill="#d1d5db" text-anchor="middle" letter-spacing="2" opacity="0.8">SILVER</text>
  </g>

  <!-- Course title -->
  <text x="60" y="346.0" font-family="Inter, system-ui, -apple-system, sans-serif" font-size="70" font-weight="800" fill="#f5e6d3" letter-spacing="-2">GitHub Foundations</text><text x="60" y="419.5" font-family="Inter, system-ui, -apple-system, sans-serif" font-size="70" font-weight="800" fill="#f5e6d3" letter-spacing="-2">(GH-900)</text><text x="60" y="296.0" font-family="ui-monospace, 'JetBrains Mono', monospace" font-size="14" fill="#7c9885" opacity="0.85" letter-spacing="4">GITHUB · LEARN TRACK</text><text x="60" y="543.0" font-family="ui-monospace, monospace" font-size="16" fill="#ffffff" letter-spacing="2">⚡ +250 XP</text>

  <!-- AI TRAINING HUB footer -->
  <g transform="translate(60, 670)">
    <line x1="0" y1="-10" x2="30" y2="-10" stroke="#ffffff" stroke-width="2" opacity="0.7"/>
    <text x="0" y="0" font-family="ui-monospace, 'JetBrains Mono', monospace" font-size="13" fill="#ffffff" letter-spacing="4" opacity="0.85">AI TRAINING HUB</text>
    <text x="0" y="18" font-family="ui-monospace, monospace" font-size="10" fill="#7c9885" letter-spacing="2" opacity="0.55">COURSE · GITHUB-FOUNDATIONS</text>
  </g>

  <!-- Right side meta (provider + url hint) -->
  <g transform="translate(1220, 670)" text-anchor="end">
    <line x1="-30" y1="-10" x2="0" y2="-10" stroke="#ffffff" stroke-width="2" opacity="0.7"/>
    <text x="0" y="0" font-family="ui-monospace, 'JetBrains Mono', monospace" font-size="13" fill="#ffffff" letter-spacing="3" opacity="0.85">GITHUB</text>
    <text x="0" y="18" font-family="ui-monospace, monospace" font-size="10" fill="#7c9885" letter-spacing="2" opacity="0.55">TIER A · 250 XP</text>
  </g>

  <!-- Subtle border accent -->
  <rect x="20" y="20" width="1240" height="680" fill="none" stroke="#ffffff" stroke-width="1" opacity="0.10" rx="8"/>
</svg>
