<?xml version="1.0" encoding="UTF-8"?>
<svg xmlns="http://www.w3.org/2000/svg" viewBox="0 0 1280 720" width="1280" height="720">
  <defs>
    <linearGradient id="g_80328487" x1="0" y1="0" x2="1" y2="1">
      <stop offset="0%" stop-color="#1f2a1a"/>
      <stop offset="100%" stop-color="#0a1408"/>
    </linearGradient>
    <radialGradient id="o_21297458" cx="50%" cy="50%" r="50%">
      <stop offset="0%" stop-color="#7c9885" stop-opacity="0.6"/>
      <stop offset="100%" stop-color="#7c9885" stop-opacity="0"/>
    </radialGradient>
    <marker id="a_14730767" markerWidth="10" markerHeight="10" refX="8" refY="3" orient="auto" markerUnits="strokeWidth">
      <path d="M0,0 L0,6 L9,3 z" fill="#7c9885"/>
    </marker>
    <filter id="softShadow" x="-20%" y="-20%" width="140%" height="140%">
      <feGaussianBlur in="SourceAlpha" stdDeviation="6"/>
      <feOffset dx="0" dy="2" result="offsetblur"/>
      <feComponentTransfer><feFuncA type="linear" slope="0.4"/></feComponentTransfer>
      <feMerge><feMergeNode/><feMergeNode in="SourceGraphic"/></feMerge>
    </filter>
  </defs>

  <!-- Background gradient -->
  <rect width="1280" height="720" fill="url(#g_80328487)"/>

  <!-- Decorative pattern -->
  <circle cx="40" cy="40" r="3" fill="#d97757" opacity="0.10975708291466377"/>
<circle cx="40" cy="100" r="2" fill="#d97757" opacity="0.1206224399442178"/>
<circle cx="40" cy="160" r="3" fill="#d97757" opacity="0.14923373814505037"/>
<circle cx="40" cy="220" r="2" fill="#d97757" opacity="0.22055360346347835"/>
<circle cx="40" cy="280" r="3" fill="#d97757" opacity="0.13286006455702498"/>
<circle cx="40" cy="340" r="2" fill="#d97757" opacity="0.1313809031481042"/>
<circle cx="40" cy="400" r="1" fill="#d97757" opacity="0.164183613997247"/>
<circle cx="40" cy="460" r="3" fill="#d97757" opacity="0.1695728396970259"/>
<circle cx="40" cy="520" r="3" fill="#d97757" opacity="0.21346166809577172"/>
<circle cx="40" cy="580" r="1" fill="#d97757" opacity="0.1901401039719552"/>
<circle cx="40" cy="640" r="3" fill="#d97757" opacity="0.1788842805528601"/>
<circle cx="40" cy="700" r="3" fill="#d97757" opacity="0.18196949407866778"/>
<circle cx="100" cy="40" r="2" fill="#d97757" opacity="0.22057091915887886"/>
<circle cx="100" cy="100" r="2" fill="#d97757" opacity="0.12821682428054618"/>
<circle cx="100" cy="160" r="3" fill="#d97757" opacity="0.23942264701709123"/>
<circle cx="100" cy="220" r="2" fill="#d97757" opacity="0.20867143576814112"/>
<circle cx="100" cy="280" r="3" fill="#d97757" opacity="0.18756875183393934"/>
<circle cx="100" cy="340" r="2" fill="#d97757" opacity="0.23890911096441206"/>
<circle cx="100" cy="400" r="1" fill="#d97757" opacity="0.1095537176134055"/>
<circle cx="100" cy="460" r="1" fill="#d97757" opacity="0.1332674379462402"/>
<circle cx="100" cy="520" r="3" fill="#d97757" opacity="0.21045755314401782"/>
<circle cx="100" cy="580" r="2" fill="#d97757" opacity="0.1709943503837481"/>
<circle cx="100" cy="640" r="3" fill="#d97757" opacity="0.12972946638612212"/>
<circle cx="100" cy="700" r="3" fill="#d97757" opacity="0.10472835665737634"/>
<circle cx="160" cy="40" r="3" fill="#d97757" opacity="0.11970839210501663"/>
<circle cx="160" cy="100" r="1" fill="#d97757" opacity="0.17858150177332482"/>
<circle cx="160" cy="160" r="1" fill="#d97757" opacity="0.1956614681141361"/>
<circle cx="160" cy="220" r="1" fill="#d97757" opacity="0.176806769662748"/>
<circle cx="160" cy="280" r="3" fill="#d97757" opacity="0.11256162946069657"/>
<circle cx="160" cy="340" r="1" fill="#d97757" opacity="0.20207480115658177"/>
<circle cx="160" cy="400" r="2" fill="#d97757" opacity="0.128317503352553"/>
<circle cx="160" cy="460" r="1" fill="#d97757" opacity="0.1096525891661865"/>
<circle cx="160" cy="520" r="3" fill="#d97757" opacity="0.13540051347219828"/>
<circle cx="160" cy="580" r="1" fill="#d97757" opacity="0.2388901391661855"/>
<circle cx="160" cy="640" r="3" fill="#d97757" opacity="0.12857271535040826"/>
<circle cx="160" cy="700" r="3" fill="#d97757" opacity="0.1920141261305084"/>
<circle cx="220" cy="40" r="1" fill="#d97757" opacity="0.12780521873730996"/>
<circle cx="220" cy="100" r="2" fill="#d97757" opacity="0.13592437857917838"/>
<circle cx="220" cy="160" r="2" fill="#d97757" opacity="0.1435871677534516"/>
<circle cx="220" cy="220" r="1" fill="#d97757" opacity="0.17759339917303646"/>
<circle cx="220" cy="280" r="2" fill="#d97757" opacity="0.11043811667928875"/>
<circle cx="220" cy="340" r="1" fill="#d97757" opacity="0.1628868263011945"/>
<circle cx="220" cy="400" r="2" fill="#d97757" opacity="0.2196824265465221"/>
<circle cx="220" cy="460" r="2" fill="#d97757" opacity="0.19348776872501355"/>
<circle cx="220" cy="520" r="1" fill="#d97757" opacity="0.2473296782009677"/>
<circle cx="220" cy="580" r="1" fill="#d97757" opacity="0.1397809489352524"/>
<circle cx="220" cy="640" r="3" fill="#d97757" opacity="0.1570761950377671"/>
<circle cx="220" cy="700" r="2" fill="#d97757" opacity="0.2464230440408107"/>
<circle cx="280" cy="40" r="2" fill="#d97757" opacity="0.18333636225115346"/>
<circle cx="280" cy="100" r="1" fill="#d97757" opacity="0.2357889489448304"/>
<circle cx="280" cy="160" r="3" fill="#d97757" opacity="0.10742899470023001"/>
<circle cx="280" cy="220" r="2" fill="#d97757" opacity="0.14695742216408014"/>
<circle cx="280" cy="280" r="2" fill="#d97757" opacity="0.14403618724943468"/>
<circle cx="280" cy="340" r="2" fill="#d97757" opacity="0.12905027229625451"/>
<circle cx="280" cy="400" r="3" fill="#d97757" opacity="0.22148343128249484"/>
<circle cx="280" cy="460" r="1" fill="#d97757" opacity="0.15991850237940514"/>
<circle cx="280" cy="520" r="3" fill="#d97757" opacity="0.1380313584559807"/>
<circle cx="280" cy="580" r="1" fill="#d97757" opacity="0.21672621073297282"/>
<circle cx="280" cy="640" r="2" fill="#d97757" opacity="0.2085722014575895"/>
<circle cx="280" cy="700" r="1" fill="#d97757" opacity="0.14950348141615905"/>
<circle cx="340" cy="40" r="3" fill="#d97757" opacity="0.19416155074804736"/>
<circle cx="340" cy="100" r="2" fill="#d97757" opacity="0.14387059211688868"/>
<circle cx="340" cy="160" r="3" fill="#d97757" opacity="0.10018161950008099"/>
<circle cx="340" cy="220" r="1" fill="#d97757" opacity="0.116634005457574"/>
<circle cx="340" cy="280" r="3" fill="#d97757" opacity="0.10247341656511268"/>
<circle cx="340" cy="340" r="1" fill="#d97757" opacity="0.19651316474606373"/>
<circle cx="340" cy="400" r="2" fill="#d97757" opacity="0.21267077656556194"/>
<circle cx="340" cy="460" r="1" fill="#d97757" opacity="0.23293028955567133"/>
<circle cx="340" cy="520" r="3" fill="#d97757" opacity="0.18436737071445208"/>
<circle cx="340" cy="580" r="1" fill="#d97757" opacity="0.15013418035580828"/>
<circle cx="340" cy="640" r="2" fill="#d97757" opacity="0.20064002387928576"/>
<circle cx="340" cy="700" r="3" fill="#d97757" opacity="0.183681290133317"/>
<circle cx="400" cy="40" r="1" fill="#d97757" opacity="0.10646289683942968"/>
<circle cx="400" cy="100" r="2" fill="#d97757" opacity="0.21073556828898815"/>
<circle cx="400" cy="160" r="3" fill="#d97757" opacity="0.11444625490186854"/>
<circle cx="400" cy="220" r="2" fill="#d97757" opacity="0.21037680138661774"/>
<circle cx="400" cy="280" r="1" fill="#d97757" opacity="0.1810828515990082"/>
<circle cx="400" cy="340" r="3" fill="#d97757" opacity="0.19103280689267715"/>
<circle cx="400" cy="400" r="2" fill="#d97757" opacity="0.14093357113079635"/>
<circle cx="400" cy="460" r="3" fill="#d97757" opacity="0.24667924909036867"/>
<circle cx="400" cy="520" r="1" fill="#d97757" opacity="0.19837068834208713"/>
<circle cx="400" cy="580" r="1" fill="#d97757" opacity="0.19181108449945844"/>
<circle cx="400" cy="640" r="2" fill="#d97757" opacity="0.23355452599958682"/>
<circle cx="400" cy="700" r="3" fill="#d97757" opacity="0.23995360616330838"/>
<circle cx="460" cy="40" r="2" fill="#d97757" opacity="0.2481117342448043"/>
<circle cx="460" cy="100" r="3" fill="#d97757" opacity="0.13741008966194587"/>
<circle cx="460" cy="160" r="1" fill="#d97757" opacity="0.10253289467236591"/>
<circle cx="460" cy="220" r="1" fill="#d97757" opacity="0.11701970165841502"/>
<circle cx="460" cy="280" r="3" fill="#d97757" opacity="0.24500758433348835"/>
<circle cx="460" cy="340" r="3" fill="#d97757" opacity="0.15549323784340796"/>
<circle cx="460" cy="400" r="3" fill="#d97757" opacity="0.1805211930144835"/>
<circle cx="460" cy="460" r="2" fill="#d97757" opacity="0.23630946472018982"/>
<circle cx="460" cy="520" r="3" fill="#d97757" opacity="0.13794812413092325"/>
<circle cx="460" cy="580" r="3" fill="#d97757" opacity="0.2089049930005139"/>
<circle cx="460" cy="640" r="3" fill="#d97757" opacity="0.10381196852733494"/>
<circle cx="460" cy="700" r="1" fill="#d97757" opacity="0.11295157383838778"/>
<circle cx="520" cy="40" r="1" fill="#d97757" opacity="0.22754303576237667"/>
<circle cx="520" cy="100" r="2" fill="#d97757" opacity="0.1945206970317675"/>
<circle cx="520" cy="160" r="2" fill="#d97757" opacity="0.15430989370102663"/>
<circle cx="520" cy="220" r="2" fill="#d97757" opacity="0.1175748971754202"/>
<circle cx="520" cy="280" r="3" fill="#d97757" opacity="0.1793134579359794"/>
<circle cx="520" cy="340" r="3" fill="#d97757" opacity="0.20243781451068737"/>
<circle cx="520" cy="400" r="3" fill="#d97757" opacity="0.23685846175129677"/>
<circle cx="520" cy="460" r="2" fill="#d97757" opacity="0.17737426398458128"/>
<circle cx="520" cy="520" r="3" fill="#d97757" opacity="0.13738681601670433"/>
<circle cx="520" cy="580" r="1" fill="#d97757" opacity="0.12822694451059252"/>
<circle cx="520" cy="640" r="3" fill="#d97757" opacity="0.20797187403424078"/>
<circle cx="520" cy="700" r="3" fill="#d97757" opacity="0.16674529692810186"/>
<circle cx="580" cy="40" r="1" fill="#d97757" opacity="0.11168825198297758"/>
<circle cx="580" cy="100" r="3" fill="#d97757" opacity="0.2254883049023421"/>
<circle cx="580" cy="160" r="3" fill="#d97757" opacity="0.10370592301810727"/>
<circle cx="580" cy="220" r="2" fill="#d97757" opacity="0.1045422268290342"/>
<circle cx="580" cy="280" r="3" fill="#d97757" opacity="0.1822748722058866"/>
<circle cx="580" cy="340" r="1" fill="#d97757" opacity="0.1509668560006026"/>
<circle cx="580" cy="400" r="3" fill="#d97757" opacity="0.14192059544140853"/>
<circle cx="580" cy="460" r="1" fill="#d97757" opacity="0.17685105938235515"/>
<circle cx="580" cy="520" r="3" fill="#d97757" opacity="0.10442217983470008"/>
<circle cx="580" cy="580" r="3" fill="#d97757" opacity="0.11750195962295133"/>
<circle cx="580" cy="640" r="3" fill="#d97757" opacity="0.14578811379419512"/>
<circle cx="580" cy="700" r="2" fill="#d97757" opacity="0.23606890983763198"/>
<circle cx="640" cy="40" r="3" fill="#d97757" opacity="0.14411260263536166"/>
<circle cx="640" cy="100" r="3" fill="#d97757" opacity="0.12369619115732736"/>
<circle cx="640" cy="160" r="1" fill="#d97757" opacity="0.22710452867790842"/>
<circle cx="640" cy="220" r="1" fill="#d97757" opacity="0.2204861844102441"/>
<circle cx="640" cy="280" r="2" fill="#d97757" opacity="0.2365909747387152"/>
<circle cx="640" cy="340" r="2" fill="#d97757" opacity="0.10866660419861066"/>
<circle cx="640" cy="400" r="3" fill="#d97757" opacity="0.21087346363016718"/>
<circle cx="640" cy="460" r="3" fill="#d97757" opacity="0.1253335243602659"/>
<circle cx="640" cy="520" r="1" fill="#d97757" opacity="0.190080773478416"/>
<circle cx="640" cy="580" r="1" fill="#d97757" opacity="0.13144085185874743"/>
<circle cx="640" cy="640" r="1" fill="#d97757" opacity="0.1893729322701403"/>
<circle cx="640" cy="700" r="1" fill="#d97757" opacity="0.2449571479731669"/>
<circle cx="700" cy="40" r="1" fill="#d97757" opacity="0.23900544612350233"/>
<circle cx="700" cy="100" r="1" fill="#d97757" opacity="0.21412358811857024"/>
<circle cx="700" cy="160" r="3" fill="#d97757" opacity="0.23901969673135742"/>
<circle cx="700" cy="220" r="3" fill="#d97757" opacity="0.23411929588290228"/>
<circle cx="700" cy="280" r="3" fill="#d97757" opacity="0.2089160291352259"/>
<circle cx="700" cy="340" r="3" fill="#d97757" opacity="0.16159879579378253"/>
<circle cx="700" cy="400" r="3" fill="#d97757" opacity="0.10167407039154967"/>
<circle cx="700" cy="460" r="3" fill="#d97757" opacity="0.21708649135525762"/>
<circle cx="700" cy="520" r="3" fill="#d97757" opacity="0.1049944411640107"/>
<circle cx="700" cy="580" r="3" fill="#d97757" opacity="0.208718779292165"/>
<circle cx="700" cy="640" r="1" fill="#d97757" opacity="0.19777772283829242"/>
<circle cx="700" cy="700" r="3" fill="#d97757" opacity="0.12483487689137468"/>
<circle cx="760" cy="40" r="3" fill="#d97757" opacity="0.23280140098913213"/>
<circle cx="760" cy="100" r="3" fill="#d97757" opacity="0.20995283230699657"/>
<circle cx="760" cy="160" r="1" fill="#d97757" opacity="0.11362785495864776"/>
<circle cx="760" cy="220" r="1" fill="#d97757" opacity="0.13474881486936247"/>
<circle cx="760" cy="280" r="3" fill="#d97757" opacity="0.15441813860527484"/>
<circle cx="760" cy="340" r="3" fill="#d97757" opacity="0.21850881804812364"/>
<circle cx="760" cy="400" r="2" fill="#d97757" opacity="0.17163558220001182"/>
<circle cx="760" cy="460" r="1" fill="#d97757" opacity="0.20032902175363299"/>
<circle cx="760" cy="520" r="3" fill="#d97757" opacity="0.1777037071730858"/>
<circle cx="760" cy="580" r="1" fill="#d97757" opacity="0.23606143593363954"/>
<circle cx="760" cy="640" r="1" fill="#d97757" opacity="0.13075079217111787"/>
<circle cx="760" cy="700" r="3" fill="#d97757" opacity="0.15813637814633202"/>
<circle cx="820" cy="40" r="3" fill="#d97757" opacity="0.12763171487635525"/>
<circle cx="820" cy="100" r="2" fill="#d97757" opacity="0.18658272703618428"/>
<circle cx="820" cy="160" r="2" fill="#d97757" opacity="0.1456794647282982"/>
<circle cx="820" cy="220" r="2" fill="#d97757" opacity="0.12517576496427676"/>
<circle cx="820" cy="280" r="3" fill="#d97757" opacity="0.1839036719697834"/>
<circle cx="820" cy="340" r="3" fill="#d97757" opacity="0.19832625666990591"/>
<circle cx="820" cy="400" r="2" fill="#d97757" opacity="0.2253720237003143"/>
<circle cx="820" cy="460" r="1" fill="#d97757" opacity="0.2491452263749543"/>
<circle cx="820" cy="520" r="2" fill="#d97757" opacity="0.17789011250509446"/>
<circle cx="820" cy="580" r="2" fill="#d97757" opacity="0.19462529816167806"/>
<circle cx="820" cy="640" r="1" fill="#d97757" opacity="0.2068117389964443"/>
<circle cx="820" cy="700" r="3" fill="#d97757" opacity="0.14885153848902297"/>
<circle cx="880" cy="40" r="3" fill="#d97757" opacity="0.2427829602117839"/>
<circle cx="880" cy="100" r="1" fill="#d97757" opacity="0.19961755745184429"/>
<circle cx="880" cy="160" r="3" fill="#d97757" opacity="0.13719140409956088"/>
<circle cx="880" cy="220" r="1" fill="#d97757" opacity="0.13067317567386955"/>
<circle cx="880" cy="280" r="2" fill="#d97757" opacity="0.10077723847132437"/>
<circle cx="880" cy="340" r="1" fill="#d97757" opacity="0.2433947104971061"/>
<circle cx="880" cy="400" r="3" fill="#d97757" opacity="0.1109014048700216"/>
<circle cx="880" cy="460" r="3" fill="#d97757" opacity="0.17727048724623093"/>
<circle cx="880" cy="520" r="2" fill="#d97757" opacity="0.17704283162606788"/>
<circle cx="880" cy="580" r="3" fill="#d97757" opacity="0.2004775787972356"/>
<circle cx="880" cy="640" r="2" fill="#d97757" opacity="0.23578633884451827"/>
<circle cx="880" cy="700" r="1" fill="#d97757" opacity="0.22286281964052612"/>
<circle cx="940" cy="40" r="3" fill="#d97757" opacity="0.13071685446907594"/>
<circle cx="940" cy="100" r="3" fill="#d97757" opacity="0.12025287052244918"/>
<circle cx="940" cy="160" r="2" fill="#d97757" opacity="0.20155720900925328"/>
<circle cx="940" cy="220" r="3" fill="#d97757" opacity="0.13945212112172892"/>
<circle cx="940" cy="280" r="1" fill="#d97757" opacity="0.21272724629923329"/>
<circle cx="940" cy="340" r="2" fill="#d97757" opacity="0.19616164505939393"/>
<circle cx="940" cy="400" r="1" fill="#d97757" opacity="0.15966136149965207"/>
<circle cx="940" cy="460" r="3" fill="#d97757" opacity="0.13120362438865796"/>
<circle cx="940" cy="520" r="1" fill="#d97757" opacity="0.1942549671341412"/>
<circle cx="940" cy="580" r="2" fill="#d97757" opacity="0.16063441034079184"/>
<circle cx="940" cy="640" r="2" fill="#d97757" opacity="0.1163238260520148"/>
<circle cx="940" cy="700" r="3" fill="#d97757" opacity="0.1607399116650708"/>
<circle cx="1000" cy="40" r="1" fill="#d97757" opacity="0.16912409426254896"/>
<circle cx="1000" cy="100" r="2" fill="#d97757" opacity="0.1475056935829907"/>
<circle cx="1000" cy="160" r="2" fill="#d97757" opacity="0.14813641315141218"/>
<circle cx="1000" cy="220" r="2" fill="#d97757" opacity="0.10357237815874001"/>
<circle cx="1000" cy="280" r="1" fill="#d97757" opacity="0.14862257386660918"/>
<circle cx="1000" cy="340" r="1" fill="#d97757" opacity="0.23649755700788677"/>
<circle cx="1000" cy="400" r="2" fill="#d97757" opacity="0.13137137805599539"/>
<circle cx="1000" cy="460" r="1" fill="#d97757" opacity="0.2289721638090032"/>
<circle cx="1000" cy="520" r="2" fill="#d97757" opacity="0.1808646139601503"/>
<circle cx="1000" cy="580" r="2" fill="#d97757" opacity="0.18499453928043744"/>
<circle cx="1000" cy="640" r="1" fill="#d97757" opacity="0.10451346384274712"/>
<circle cx="1000" cy="700" r="1" fill="#d97757" opacity="0.18529811579958091"/>
<circle cx="1060" cy="40" r="2" fill="#d97757" opacity="0.22826258200997168"/>
<circle cx="1060" cy="100" r="2" fill="#d97757" opacity="0.20311451008244524"/>
<circle cx="1060" cy="160" r="3" fill="#d97757" opacity="0.11332666759698456"/>
<circle cx="1060" cy="220" r="3" fill="#d97757" opacity="0.1675951189209622"/>
<circle cx="1060" cy="280" r="1" fill="#d97757" opacity="0.19332917266618305"/>
<circle cx="1060" cy="340" r="1" fill="#d97757" opacity="0.15738952099420195"/>
<circle cx="1060" cy="400" r="2" fill="#d97757" opacity="0.22026689286007733"/>
<circle cx="1060" cy="460" r="1" fill="#d97757" opacity="0.24610616717844389"/>
<circle cx="1060" cy="520" r="3" fill="#d97757" opacity="0.1923381395433849"/>
<circle cx="1060" cy="580" r="2" fill="#d97757" opacity="0.12497659744696105"/>
<circle cx="1060" cy="640" r="3" fill="#d97757" opacity="0.20256825094687486"/>
<circle cx="1060" cy="700" r="1" fill="#d97757" opacity="0.22538748014585192"/>
<circle cx="1120" cy="40" r="3" fill="#d97757" opacity="0.20449356677568636"/>
<circle cx="1120" cy="100" r="2" fill="#d97757" opacity="0.24078953576490678"/>
<circle cx="1120" cy="160" r="3" fill="#d97757" opacity="0.2347291662236731"/>
<circle cx="1120" cy="220" r="2" fill="#d97757" opacity="0.160615271488045"/>
<circle cx="1120" cy="280" r="3" fill="#d97757" opacity="0.2387449932973966"/>
<circle cx="1120" cy="340" r="3" fill="#d97757" opacity="0.18143055032017125"/>
<circle cx="1120" cy="400" r="2" fill="#d97757" opacity="0.16488851048066683"/>
<circle cx="1120" cy="460" r="3" fill="#d97757" opacity="0.18379594247692618"/>
<circle cx="1120" cy="520" r="3" fill="#d97757" opacity="0.23277282525927462"/>
<circle cx="1120" cy="580" r="3" fill="#d97757" opacity="0.14507452894359987"/>
<circle cx="1120" cy="640" r="1" fill="#d97757" opacity="0.16668514756888192"/>
<circle cx="1120" cy="700" r="1" fill="#d97757" opacity="0.18380189982983197"/>
<circle cx="1180" cy="40" r="3" fill="#d97757" opacity="0.21956280652888288"/>
<circle cx="1180" cy="100" r="1" fill="#d97757" opacity="0.12785630782799512"/>
<circle cx="1180" cy="160" r="2" fill="#d97757" opacity="0.13995095017738332"/>
<circle cx="1180" cy="220" r="2" fill="#d97757" opacity="0.1577075129668244"/>
<circle cx="1180" cy="280" r="1" fill="#d97757" opacity="0.2152544996189809"/>
<circle cx="1180" cy="340" r="1" fill="#d97757" opacity="0.2478552576598853"/>
<circle cx="1180" cy="400" r="1" fill="#d97757" opacity="0.14926941084852235"/>
<circle cx="1180" cy="460" r="1" fill="#d97757" opacity="0.20632360388819157"/>
<circle cx="1180" cy="520" r="3" fill="#d97757" opacity="0.11780893374796758"/>
<circle cx="1180" cy="580" r="2" fill="#d97757" opacity="0.18314880775126768"/>
<circle cx="1180" cy="640" r="2" fill="#d97757" opacity="0.10582029078924028"/>
<circle cx="1180" cy="700" r="2" fill="#d97757" opacity="0.17697632538264424"/>
<circle cx="1240" cy="40" r="3" fill="#d97757" opacity="0.15927260240514113"/>
<circle cx="1240" cy="100" r="1" fill="#d97757" opacity="0.15548516892329475"/>
<circle cx="1240" cy="160" r="1" fill="#d97757" opacity="0.2065064185935177"/>
<circle cx="1240" cy="220" r="2" fill="#d97757" opacity="0.10155966917951248"/>
<circle cx="1240" cy="280" r="1" fill="#d97757" opacity="0.11831480983319484"/>
<circle cx="1240" cy="340" r="3" fill="#d97757" opacity="0.24126263052514654"/>
<circle cx="1240" cy="400" r="2" fill="#d97757" opacity="0.22846359510047795"/>
<circle cx="1240" cy="460" r="2" fill="#d97757" opacity="0.22107857319875465"/>
<circle cx="1240" cy="520" r="2" fill="#d97757" opacity="0.22173279390814582"/>
<circle cx="1240" cy="580" r="2" fill="#d97757" opacity="0.1909815521075376"/>
<circle cx="1240" cy="640" r="3" fill="#d97757" opacity="0.12270884511772569"/>
<circle cx="1240" cy="700" r="3" fill="#d97757" opacity="0.20260006260147737"/>
<circle cx="1081" cy="529" r="280" fill="url(#orbGrad88835)" opacity="0.3"/>

  <!-- Subtle vignette -->
  <rect width="1280" height="720" fill="url(#o_21297458)" opacity="0.15"/>

  <!-- Provider logo / wordmark -->
  <g transform="translate(60, 80)">
  <text x="0" y="0" font-family="Georgia, serif" font-size="34" font-weight="700" fill="#7c9885" letter-spacing="-1">DAIR.AI</text>
  <text x="0" y="28" font-family="ui-monospace, monospace" font-size="13" fill="#d97757" opacity="0.85" letter-spacing="3">AI TRAINING HUB</text>
  <line x1="0" y1="12" x2="40" y2="12" stroke="#7c9885" stroke-width="3" opacity="0.7"/>
</g>

  <!-- Tier pill (top-left, below logo) -->
  <g transform="translate(60, 145)">
    <rect x="0" y="0" width="100" height="32" rx="16" fill="#7c9885"/>
    <text x="50" y="21" font-family="ui-monospace, 'JetBrains Mono', monospace" font-size="13" font-weight="700" fill="#0d1117" text-anchor="middle" letter-spacing="2">LEARN</text>
  </g>

  <!-- Quality tier badge (top-right) -->
  <g transform="translate(1170, 60)">
    <circle cx="0" cy="0" r="40" fill="#cd7f32" opacity="0.20"/>
    <circle cx="0" cy="0" r="32" fill="none" stroke="#cd7f32" stroke-width="2.5"/>
    <text x="0" y="12" font-family="Georgia, serif" font-size="38" font-weight="900" fill="#cd7f32" text-anchor="middle">B</text>
    <text x="0" y="60" font-family="ui-monospace, monospace" font-size="10" fill="#cd7f32" text-anchor="middle" letter-spacing="2" opacity="0.8">BRONZE</text>
  </g>

  <!-- Course title -->
  <text x="60" y="346.0" font-family="Inter, system-ui, -apple-system, sans-serif" font-size="70" font-weight="800" fill="#f5e6d3" letter-spacing="-2">Prompt Engineering</text><text x="60" y="419.5" font-family="Inter, system-ui, -apple-system, sans-serif" font-size="70" font-weight="800" fill="#f5e6d3" letter-spacing="-2">Guide (DAIR.AI)</text><text x="60" y="296.0" font-family="ui-monospace, 'JetBrains Mono', monospace" font-size="14" fill="#d97757" opacity="0.85" letter-spacing="4">DAIR.AI · LEARN TRACK</text><text x="60" y="543.0" font-family="ui-monospace, monospace" font-size="16" fill="#7c9885" letter-spacing="2">⚡ +300 XP</text>

  <!-- AI TRAINING HUB footer -->
  <g transform="translate(60, 670)">
    <line x1="0" y1="-10" x2="30" y2="-10" stroke="#7c9885" stroke-width="2" opacity="0.7"/>
    <text x="0" y="0" font-family="ui-monospace, 'JetBrains Mono', monospace" font-size="13" fill="#7c9885" letter-spacing="4" opacity="0.85">AI TRAINING HUB</text>
    <text x="0" y="18" font-family="ui-monospace, monospace" font-size="10" fill="#d97757" letter-spacing="2" opacity="0.55">COURSE · PROMPTING-GUIDE-DAIR</text>
  </g>

  <!-- Right side meta (provider + url hint) -->
  <g transform="translate(1220, 670)" text-anchor="end">
    <line x1="-30" y1="-10" x2="0" y2="-10" stroke="#7c9885" stroke-width="2" opacity="0.7"/>
    <text x="0" y="0" font-family="ui-monospace, 'JetBrains Mono', monospace" font-size="13" fill="#7c9885" letter-spacing="3" opacity="0.85">DAIR.AI</text>
    <text x="0" y="18" font-family="ui-monospace, monospace" font-size="10" fill="#d97757" letter-spacing="2" opacity="0.55">TIER B · 300 XP</text>
  </g>

  <!-- Subtle border accent -->
  <rect x="20" y="20" width="1240" height="680" fill="none" stroke="#7c9885" stroke-width="1" opacity="0.10" rx="8"/>
</svg>
